<svg xmlns="http://www.w3.org/2000/svg" viewBox="0 0 200 200">
<defs><linearGradient id="g" x1="0" y1="0" x2="1" y2="1"><stop offset="0" stop-color="#496b8a"/><stop offset="1" stop-color="#e8f2f1"/></linearGradient></defs>
<rect width="200" height="200" rx="100" fill="url(#g)"/>
<circle cx="100" cy="82" r="38" fill="#b97854"/>
<path d="M62 82c0-31 17-51 39-51 28 0 40 21 39 51-10-11-20-16-37-16-17 0-29 7-41 16z" fill="#2b241f"/>
<path d="M48 178c6-43 29-64 52-64s46 21 52 64z" fill="#fff"/>
<path d="M77 125c7 7 14 10 23 10s16-3 23-10l8 13c-8 10-19 16-31 16s-23-6-31-16z" fill="#dbe9e8"/>
<circle cx="85" cy="83" r="3" fill="#263238"/><circle cx="115" cy="83" r="3" fill="#263238"/>
<path d="M89 101c7 5 15 5 22 0" fill="none" stroke="#754c42" stroke-width="3" stroke-linecap="round"/>
</svg>